<svg xmlns="http://www.w3.org/2000/svg" width="27" height="27" viewBox="0 0 27 27" fill="none"><path d="M15.6569 22.7562C14.9643 22.9148 14.2409 22.9999 13.5019 22.9999C8.25574 22.9999 4 18.7481 4 13.5019C4 8.25187 8.25574 4 13.5019 4C14.2409 4 14.9643 4.08511 15.6569 4.24761C12.8752 4.89371 10.5616 6.75849 9.31194 9.2539C8.21705 10.3372 7.53613 11.8422 7.53613 13.5019C7.53613 15.1616 8.21705 16.6666 9.31194 17.7499C10.5616 20.2414 12.8752 22.1101 15.6569 22.7562Z" fill="#0883FF"></path><path d="M17.8162 21.9661C17.1392 22.3104 16.4157 22.5774 15.6574 22.7553C12.8757 22.1092 10.5621 20.2406 9.3125 17.749C10.3919 18.8091 11.8698 19.4629 13.5025 19.4629C13.8932 19.4629 14.2762 19.4242 14.6476 19.3507C15.4949 20.4379 16.5782 21.3355 17.8162 21.9661Z" fill="#0040C8"></path><path d="M13.5025 7.53849C11.8698 7.53849 10.3919 8.19232 9.3125 9.25239C10.5621 6.75698 12.8757 4.89219 15.6574 4.24609C16.4157 4.42406 17.1392 4.69101 17.8162 5.03534C16.5782 5.66596 15.4949 6.56354 14.6438 7.64682C14.2762 7.57718 13.8932 7.53849 13.5025 7.53849Z" fill="#0040C8"></path><path d="M22.9998 13.5012C22.9998 17.1921 20.8913 20.3955 17.8155 21.9662C16.5775 21.3356 15.4942 20.438 14.6469 19.3509C17.3938 18.817 19.4637 16.4028 19.4637 13.5012C19.4637 10.5995 17.39 8.18151 14.6431 7.64761C15.4942 6.56433 16.5775 5.66676 17.8155 5.03613C20.8913 6.60689 22.9998 9.80643 22.9998 13.5012Z" fill="#71C4F3"></path></svg>